#!OML:ASF H:\Martial Arts Walks\Project 1\Capture day 1\Session 1\male.ASF
:FULLY-SPECIFIED
:DEGREES
1064
root -1.26185 13.3745 28.664 9.39737 -54.8508 -10.57
lowerback 15.618 6.53992 1.10963
upperback -3.79367 9.09245 0.644898
thorax -12.8901 4.18979 -2.29698
lowerneck -2.38459 8.84875 0.965642
upperneck 6.07802 11.5726 3.50754
head 2.15622 5.87486 1.23096
rclavicle -6.96802e-014 -9.14409e-015
rhumerus -54.5582 50.7117 -111.226
rradius 114.394
rwrist -82.0012
rhand 4.86285 -27.9079
rfingers 7.12502
rthumb 30.2392 -55.4516
lclavicle -6.96802e-014 -9.14409e-015
lhumerus 8.29904 11.3737 78.9935
lradius 89.6653
lwrist -23.7577
lhand -36.712 47.1663
lfingers 7.12502
lthumb -9.79674 -283.082
rfemur -29.017 -29.325 13.7112
rtibia 82.8444
rfoot -36.1325 -20.6418
rtoes -13.6718
lfemur -58.502 42.1057 -7.56878
ltibia 70.5375
lfoot -4.70847 -3.88457
ltoes 3.25087
1065
root -1.26978 13.3725 28.6713 9.42923 -54.8159 -10.5718
lowerback 15.5708 6.52779 1.09344
upperback -3.78847 9.07165 0.643655
thorax -12.8588 4.1829 -2.27778
lowerneck -2.37554 8.84908 0.970123
upperneck 6.04218 11.573 3.52305
head 2.1421 5.87518 1.233
rclavicle 1.44386e-013 3.57812e-014
rhumerus -54.5855 50.7311 -111.292
rradius 114.366
rwrist -81.956
rhand 4.85927 -27.8744
rfingers 7.12502
rthumb 30.2357 -55.4187
lclavicle 1.44386e-013 3.57812e-014
lhumerus 8.32726 11.3998 78.9484
lradius 89.6015
lwrist -23.753
lhand -36.6535 47.1143
lfingers 7.12502
lthumb -9.74031 -283.131
rfemur -28.9734 -29.3878 13.6793
rtibia 82.8362
rfoot -36.1628 -20.6137
rtoes -13.9182
lfemur -58.578 42.1671 -7.61458
ltibia 70.6086
lfoot -4.77072 -3.95717
ltoes 3.2957
1066
root -1.27784 13.3706 28.6783 9.47102 -54.7718 -10.586
lowerback 15.5268 6.51289 1.08549
upperback -3.78546 9.04913 0.643703
thorax -12.831 4.17446 -2.26177
lowerneck -2.36212 8.84686 0.964691
upperneck 6.00374 11.5701 3.54684
head 2.12529 5.87384 1.23865
rclavicle -3.57812e-014 1.19271e-015
rhumerus -54.6195 50.7493 -111.365
rradius 114.342
rwrist -81.9236
rhand 4.81383 -27.796
rfingers 7.12502
rthumb 30.1924 -55.3482
lclavicle -3.57812e-014 1.19271e-015
lhumerus 8.35423 11.4278 78.9045
lradius 89.5381
lwrist -23.8038
lhand -36.6034 47.0148
lfingers 7.12502
lthumb -9.69201 -283.228
rfemur -28.9276 -29.4534 13.6594
rtibia 82.8249
rfoot -36.1893 -20.5985
rtoes -14.1483
lfemur -58.6582 42.217 -7.65215
ltibia 70.678
lfoot -4.82888 -4.02185
ltoes 3.31005
1067
root -1.28601 13.3686 28.685 9.52361 -54.7185 -10.6145
lowerback 15.489 6.4963 1.08682
upperback -3.78563 9.02679 0.646162
thorax -12.8094 4.1652 -2.24924
lowerneck -2.345 8.84186 0.949512
upperneck 5.966 11.5638 3.57605
head 2.10719 5.87067 1.2472
rclavicle 8.75895e-015 -7.55382e-015
rhumerus -54.659 50.7622 -111.44
rradius 114.322
rwrist -81.9087
rhand 4.73225 -27.6689
rfingers 7.12502
rthumb 30.1146 -55.2354
lclavicle 8.75895e-015 -7.55382e-015
lhumerus 8.37847 11.4524 78.8641
lradius 89.4742
lwrist -23.8812
lhand -36.5767 46.8913
lfingers 7.12502
lthumb -9.66624 -283.351
rfemur -28.8793 -29.5187 13.6532
rtibia 82.811
rfoot -36.2143 -20.5934
rtoes -14.352
lfemur -58.7424 42.2544 -7.67963
ltibia 70.7468
lfoot -4.88268 -4.07631
ltoes 3.29178
1068
root -1.29426 13.3666 28.6913 9.58791 -54.6578 -10.659
lowerback 15.4586 6.47891 1.09822
upperback -3.78941 9.00608 0.651782
thorax -12.7953 4.15571 -2.24037
lowerneck -2.32521 8.83473 0.9273
upperneck 5.93173 11.5548 3.60651
head 2.08932 5.86611 1.25714
rclavicle -1.43808e-014 -4.01545e-014
rhumerus -54.6979 50.7657 -111.509
rradius 114.304
rwrist -81.9084
rhand 4.63755 -27.5142
rfingers 7.12502
rthumb 30.0242 -55.0971
lclavicle -1.43808e-014 -4.01545e-014
lhumerus 8.39881 11.4696 78.8285
lradius 89.41
lwrist -23.9526
lhand -36.5793 46.7728
lfingers 7.12502
lthumb -9.66877 -283.469
rfemur -28.8289 -29.5807 13.6618
rtibia 82.7954
rfoot -36.2395 -20.5962
rtoes -14.5264
lfemur -58.8296 42.2805 -7.69473
ltibia 70.8161
lfoot -4.93249 -4.11986
ltoes 3.24653
1069
root -1.30258 13.3645 28.6974 9.66075 -54.5928 -10.7163
lowerback 15.4342 6.46152 1.11842
upperback -3.79606 8.98769 0.659819
thorax -12.7871 4.14647 -2.23523
lowerneck -2.30357 8.82678 0.901618
upperneck 5.90205 11.545 3.63436
head 2.07262 5.861 1.26689
rclavicle -4.65529e-014 5.1684e-015
rhumerus -54.7273 50.7556 -111.562
rradius 114.288
rwrist -81.9125
rhand 4.56437 -27.373
rfingers 7.12502
rthumb 29.9544 -54.9685
lclavicle -4.65529e-014 5.1684e-015
lhumerus 8.41517 11.4783 78.798
lradius 89.3459
lwrist -23.992
lhand -36.609 46.6861
lfingers 7.12502
lthumb -9.69745 -283.557
rfemur -28.7768 -29.6375 13.6816
rtibia 82.7797
rfoot -36.2667 -20.6034
rtoes -14.6764
lfemur -58.9172 42.2978 -7.69787
ltibia 70.8873
lfoot -4.97974 -4.15323
ltoes 3.18587
1070
root -1.31096 13.362 28.7035 9.7385 -54.5276 -10.7813
lowerback 15.4135 6.4448 1.14527
upperback -3.80468 8.97182 0.669127
thorax -12.7825 4.13778 -2.23355
lowerneck -2.28038 8.82011 0.874639
upperneck 5.87626 11.5371 3.6584
head 2.05706 5.85674 1.27579
rclavicle -4.88265e-015 3.18055e-014
rhumerus -54.7397 50.7295 -111.59
rradius 114.275
rwrist -81.9073
rhand 4.54612 -27.2901
rfingers 7.12502
rthumb 29.937 -54.8887
lclavicle -4.88265e-015 3.18055e-014
lhumerus 8.42791 11.4797 78.7724
lradius 89.2832
lwrist -23.9886
lhand -36.65 46.6481
lfingers 7.12502
lthumb -9.73701 -283.597
rfemur -28.7242 -29.6895 13.7076
rtibia 82.7655
rfoot -36.2965 -20.6116
rtoes -14.8122
lfemur -59.0028 42.3088 -7.69084
ltibia 70.9615
lfoot -5.02586 -4.17825
ltoes 3.12398
1071
root -1.31936 13.3593 28.7097 9.81543 -54.4659 -10.8463
lowerback 15.3937 6.42933 1.17484
upperback -3.81404 8.95818 0.678113
thorax -12.7787 4.12987 -2.23443
lowerneck -2.25695 8.81627 0.849492
upperneck 5.85395 11.5332 3.67703
head 2.04299 5.85436 1.28297
rclavicle -6.94504e-014 -5.56597e-015
rhumerus -54.7306 50.6859 -111.588
rradius 114.266
rwrist -81.8759
rhand 4.61245 -27.3085
rfingers 7.12502
rthumb 30.0002 -54.8957
lclavicle -6.94504e-014 -5.56597e-015
lhumerus 8.43886 11.4774 78.7514
lradius 89.2224
lwrist -23.947
lhand -36.685 46.657
lfingers 7.12502
lthumb -9.77078 -283.59
rfemur -28.6727 -29.7395 13.7325
rtibia 82.755
rfoot -36.3297 -20.6159
rtoes -14.9448
lfemur -59.0845 42.3161 -7.67756
ltibia 71.0398
lfoot -5.07226 -4.19734
ltoes 3.07463
1072
root -1.32774 13.3563 28.7161 9.88579 -54.4109 -10.9033
lowerback 15.3725 6.41591 1.20255
upperback -3.82335 8.94665 0.68529
thorax -12.7739 4.12305 -2.23663
lowerneck -2.23373 8.81588 0.827903
upperneck 5.83356 11.534 3.68953
head 2.03011 5.85427 1.28792
rclavicle 1.19327e-013 9.93923e-015
rhumerus -54.7007 50.625 -111.555
rradius 114.262
rwrist -81.8035
rhand 4.77893 -27.4535
rfingers 7.12502
rthumb 30.1591 -55.0118
lclavicle 1.19327e-013 9.93923e-015
lhumerus 8.44999 11.4749 78.735
lradius 89.1635
lwrist -23.8838
lhand -36.6994 46.6944
lfingers 7.12502
lthumb -9.78463 -283.553
rfemur -28.6239 -29.7902 13.7487
rtibia 82.7504
rfoot -36.3663 -20.6126
rtoes -15.0852
lfemur -59.1612 42.3216 -7.66325
ltibia 71.1224
lfoot -5.12002 -4.21254
ltoes 3.04501
1073
root -1.33608 13.3529 28.7227 9.94487 -54.3646 -10.9451
lowerback 15.3485 6.40561 1.22383
upperback -3.83204 8.93755 0.689503
thorax -12.7673 4.11781 -2.23882
lowerneck -2.21351 8.81846 0.812131
upperneck 5.81551 11.5387 3.69485
head 2.01925 5.85615 1.29014
rclavicle 1.05368e-013 1.51076e-014
rhumerus -54.6531 50.5497 -111.495
rradius 114.266
rwrist -81.6841
rhand 5.03801 -27.7187
rfingers 7.12502
rthumb 30.4062 -55.2316
lclavicle 1.05368e-013 1.51076e-014
lhumerus 8.46349 11.4747 78.7241
lradius 89.1065
lwrist -23.8193
lhand -36.6859 46.7374
lfingers 7.12502
lthumb -9.77161 -283.509
rfemur -28.5802 -29.8437 13.751
rtibia 82.7534
rfoot -36.4065 -20.5988
rtoes -15.2387
lfemur -59.2332 42.3263 -7.65334
ltibia 71.2097
lfoot -5.16973 -4.22533
ltoes 3.03235
1074
root -1.34438 13.3493 28.7295 9.99346 -54.328 -10.9714
lowerback 15.3209 6.39934 1.23805
upperback -3.84011 8.93193 0.690434
thorax -12.7581 4.11471 -2.24113
lowerneck -2.19961 8.82201 0.804908
upperneck 5.80134 11.5446 3.6912
head 2.01182 5.85864 1.28886
rclavicle 1.21283e-013 4.09496e-014
rhumerus -54.5939 50.4649 -111.412
rradius 114.277
rwrist -81.5214
rhand 5.36493 -28.0738
rfingers 7.12502
rthumb 30.718 -55.5286
lclavicle 1.21283e-013 4.09496e-014
lhumerus 8.48109 11.4776 78.7193
lradius 89.0512
lwrist -23.7712
lhand -36.6498 46.7687
lfingers 7.12502
lthumb -9.73676 -283.476
rfemur -28.5437 -29.8986 13.7396
rtibia 82.7646
rfoot -36.4497 -20.5753
rtoes -15.4066
lfemur -59.302 42.3317 -7.64969
ltibia 71.3012
lfoot -5.22164 -4.23636
ltoes 3.02724
